<svg width="329" height="86" viewBox="0 0 329 86" fill="none" xmlns="http://www.w3.org/2000/svg">
<g clip-path="url(#clip0)">
<path d="M0 0.699951V85.3H62.1V75.3H10V62.5999C14.2 65.7 19.3 67.3 24.5 67.3H43.6V38H24.3V48H33.6V57.4H24.5C16.5 57.5 10 51.0999 10 43.0999C9.9 35.0999 16.3 28.6 24.3 28.6C24.4 28.6 24.5 28.6 24.5 28.6H33.5V18.6H24.5C19.3 18.6 14.2 20.2999 10 23.2999V10.6H75V38H62.1V18.6H42.8V28.6H52.1V67.4H62.1V48H74.9V85.3H84.9V0.699951H0Z" fill="#795D4C"/>
<path d="M139.9 85.3H132.1V72.7H117.8V85.3H110V53H117.8V66.5H132.1V53H139.9V85.3ZM147.6 69.2C147.6 60 154.1 52.4 164.9 52.4C175.7 52.4 182.3 60 182.3 69.2C182.3 78.4 175.7 86 164.9 86C154.1 86 147.6 78.4 147.6 69.2ZM174.2 69.2C174.3 64.1 170.2 59.9 165.1 59.9C160 59.8 155.8 63.9 155.8 69V69.2C155.7 74.3 159.8 78.5 164.9 78.5C170 78.6 174.2 74.5 174.2 69.4V69.2ZM190.2 71.4V53H198V71.3C198 75 200.3 78.4 205.1 78.4C210 78.4 212.1 75.1 212.1 71.3V53H219.9V71.3C219.9 79.6 214.3 85.9 205.1 85.9C196 86 190.2 79.7 190.2 71.4ZM233.1 75.7C233.1 75.7 237.8 78.8 242.5 78.8C245.5 78.8 246.5 77.6 246.5 76.1C246.5 74.4 245.4 73.6 240.5 72.2C233.4 70.2 229.3 67.6 229.3 62.3C229.3 56.4 233.5 52.3 242.3 52.3C251.4 52.3 254.9 55.7 254.9 55.7L250.7 62C248.2 60.3 245.3 59.3 242.3 59.3C239.2 59.3 238.3 60.3 238.3 61.7C238.3 63.3 239.8 64 243.9 65C251.5 67 255.7 69.8 255.7 75.2C255.7 81.1 251.6 85.9 242.7 85.9C233.5 85.9 228.8 81.6 228.8 81.6L233.1 75.7ZM286.4 72.2H272.2V78.5H290V85.2H264.3V53H290V59.7H272.1V66H286.3L286.4 72.2ZM147.6 16.8C147.6 7.6 154.1 0 164.9 0C175.7 0 182.3 7.6 182.3 16.8C182.3 26 175.8 33.6 164.9 33.6C154.1 33.6 147.6 26.1 147.6 16.8ZM174.2 16.8C174.3 11.7 170.2 7.5 165.1 7.5C160 7.4 155.8 11.5 155.8 16.6V16.8C155.7 21.9 159.8 26.1 164.9 26.1C170 26.2 174.2 22.1 174.2 17V16.8ZM190.2 32.9V0.7H198V26.2H215.5V32.9H190.2ZM239.4 32.9H226V0.7H239.4C250.2 0.7 256.6 7.6 256.6 16.8C256.6 26 250.2 32.9 239.4 32.9ZM233.8 7.4V26.2H238.8C244.4 26.2 248.5 23 248.5 16.8C248.5 10.6 244.5 7.4 238.8 7.4H233.8ZM286.4 19.9H272.2V26.2H290V32.9H264.3V0.7H290V7.4H272.1V13.7H286.3V19.9H286.4ZM329 32.9H327.2L306.3 15.1V32.9H298.5V0.7H300.3L321.2 17.8V0.8H329V32.9ZM127.1 7.4H139.9V0.7H126.5C115.7 0.7 109.3 7.6 109.3 16.8C109.3 26 115.7 32.9 126.5 32.9H139.9V13.8H125.8V19.9H132.1V26.2H127.1C121.5 26.2 117.4 23 117.4 16.8C117.4 10.6 121.5 7.4 127.1 7.4Z" fill="#795D4C"/>
</g>
<defs>
<clipPath id="clip0">
<rect width="329" height="86" fill="white"/>
</clipPath>
</defs>
</svg>
