<svg width="190" height="41" viewBox="0 0 190 41" fill="none" xmlns="http://www.w3.org/2000/svg">
<g clip-path="url(#clip0)">
<path d="M25.0712 40.1077H18.1798V23.4528C18.1798 22.4756 18.0107 21.5834 17.7147 20.8186C17.4188 20.0539 16.996 19.459 16.5309 18.9492C16.0236 18.4394 15.474 18.0995 14.7975 17.8445C14.121 17.5896 13.4446 17.4621 12.7681 17.4621C11.7112 17.4621 10.6965 17.6321 9.72408 17.9295C8.75167 18.2694 7.82154 18.6943 6.93369 19.2891V40.1077H0V0.169922H6.89141L6.93369 13.8507C7.94838 13.0435 9.13218 12.4487 10.4851 12.0663C11.838 11.6839 13.1486 11.4715 14.3747 11.4715C15.8122 11.4715 17.1651 11.6839 18.4335 12.1513C19.7018 12.6186 20.8433 13.3409 21.858 14.2756C22.8304 15.2103 23.6337 16.4 24.2256 17.8445C24.8175 19.2891 25.0712 20.9886 25.0712 22.943V40.1077Z" fill="white"/>
<path d="M58.9786 26.1721C58.9786 28.2539 58.5981 30.2083 57.837 31.9928C57.076 33.7772 56.0191 35.3068 54.6661 36.6239C53.3132 37.941 51.7489 38.9607 49.9309 39.7254C48.113 40.4902 46.2104 40.8726 44.1388 40.8726C42.1094 40.8726 40.1646 40.4902 38.3889 39.7254C36.6132 38.9607 35.0489 37.941 33.696 36.6239C32.343 35.3068 31.2861 33.7772 30.5251 31.9928C29.7641 30.2083 29.3835 28.2964 29.3835 26.2146C29.3835 24.1752 29.7641 22.3057 30.5673 20.5213C31.3706 18.7368 32.4276 17.1648 33.7382 15.8477C35.0912 14.5306 36.6555 13.4684 38.4312 12.7037C40.2069 11.9389 42.1094 11.5565 44.1388 11.5565C46.1681 11.5565 48.113 11.9389 49.9309 12.7037C51.7489 13.4684 53.3132 14.4881 54.6661 15.8052C56.0191 17.1223 57.076 18.6519 57.837 20.4363C58.5981 22.2208 58.9786 24.1327 58.9786 26.1721ZM52.0449 26.1721C52.0449 24.9824 51.8335 23.8778 51.4107 22.8581C50.9879 21.8384 50.4383 20.9462 49.7195 20.1814C49.0008 19.4166 48.1552 18.8218 47.2251 18.3544C46.2527 17.9296 45.238 17.7171 44.1811 17.7171C43.0818 17.7171 42.0671 17.9296 41.137 18.3544C40.1646 18.7793 39.3613 19.3741 38.6426 20.1814C37.9238 20.9462 37.3742 21.8384 36.9514 22.8581C36.5286 23.8778 36.3172 24.9824 36.3172 26.1721C36.3172 27.3617 36.5286 28.4664 36.9514 29.4861C37.3742 30.5057 37.9238 31.398 38.6426 32.2052C39.319 32.97 40.1646 33.5648 41.137 33.9897C42.1094 34.4146 43.1241 34.627 44.1811 34.627C45.2803 34.627 46.295 34.4146 47.2251 33.9897C48.1975 33.5648 49.0008 32.97 49.7195 32.1627C50.4383 31.398 50.9879 30.5057 51.4107 29.4436C51.8758 28.4664 52.0449 27.3617 52.0449 26.1721Z" fill="white"/>
<path d="M104.301 40.1078H97.4098V23.4954C97.4098 21.541 96.9447 20.0539 96.0146 19.0342C95.0845 18.0145 93.9007 17.5047 92.5478 17.5047C91.4908 17.5047 90.4761 17.6747 89.546 18.0146C88.6158 18.3544 87.6857 18.9068 86.7979 19.6715C87.0938 20.7762 87.2207 22.0508 87.2207 23.4954V40.1078H80.3292V23.4954C80.3292 21.541 79.8642 20.0539 78.934 19.0342C78.0039 18.0145 76.8624 17.5047 75.5095 17.5047C74.4525 17.5047 73.5224 17.6747 72.7191 18.057C71.9158 18.4394 71.0702 19.0342 70.2247 19.799V40.0653H63.3333V12.2788H70.1824V14.3607C71.028 13.5109 72.0426 12.8311 73.2264 12.3213C74.4102 11.8114 75.594 11.5565 76.8201 11.5565C78.173 11.5565 79.5259 11.8539 80.8789 12.4912C82.2318 13.0861 83.4156 13.9783 84.4725 15.1254C85.91 13.8508 87.3475 12.9161 88.8272 12.3638C90.307 11.8114 91.9136 11.5565 93.6893 11.5565C95.1267 11.5565 96.4797 11.769 97.7903 12.1938C99.1009 12.6187 100.2 13.2985 101.173 14.2757C102.145 15.2104 102.906 16.4425 103.456 17.8871C104.048 19.3316 104.301 21.1161 104.301 23.1555V40.1078Z" fill="white"/>
<path d="M138.166 26.1296C138.166 26.5969 138.124 27.0643 138.082 27.5316C138.04 27.999 137.997 28.5088 137.913 29.0187H115.759C116.013 29.8259 116.393 30.5907 116.858 31.313C117.323 32.0353 117.873 32.6726 118.549 33.1824C119.226 33.6923 119.987 34.1171 120.832 34.4145C121.678 34.712 122.608 34.8819 123.623 34.8819C124.849 34.8819 126.117 34.6695 127.343 34.2446C128.569 33.8197 129.626 33.2249 130.472 32.5026L134.869 36.8788C132.966 38.3234 131.064 39.343 129.246 39.9379C127.428 40.5327 125.483 40.8301 123.411 40.8301C121.34 40.8301 119.395 40.4477 117.577 39.6829C115.759 38.9182 114.195 37.856 112.884 36.5389C111.573 35.2218 110.516 33.6923 109.755 31.9078C108.994 30.1234 108.614 28.2114 108.614 26.2145C108.614 24.1752 108.994 22.3057 109.755 20.5213C110.516 18.7368 111.573 17.2073 112.926 15.8902C114.279 14.5731 115.843 13.5109 117.619 12.7461C119.395 11.9814 121.34 11.599 123.369 11.599C125.314 11.599 127.174 11.9814 128.992 12.7037C130.768 13.4259 132.374 14.4456 133.727 15.7202C135.08 16.9949 136.179 18.5244 136.983 20.3088C137.786 22.0083 138.166 23.9627 138.166 26.1296ZM130.937 23.4529C130.387 21.6684 129.415 20.2664 128.02 19.2042C126.624 18.142 125.06 17.5897 123.284 17.5897C121.551 17.5897 119.987 18.142 118.634 19.2042C117.239 20.2664 116.308 21.7109 115.759 23.4529H130.937Z" fill="white"/>
<path d="M179.811 17.1648L166.831 6.20313C166.493 5.90573 166.113 5.69329 165.648 5.52334C165.563 5.52334 165.521 5.48085 165.436 5.48085C165.14 5.39588 164.887 5.35339 164.591 5.35339C163.787 5.35339 162.984 5.6508 162.35 6.20313L153.175 13.9783L149.413 17.1648C148.398 18.0145 147.848 19.2467 147.848 20.5638V37.4736C147.848 39.428 149.413 41 151.358 41H177.993C179.346 41 180.572 40.1928 181.164 38.9607C181.164 38.9182 181.206 38.9182 181.206 38.8757C181.418 38.4508 181.502 37.941 181.502 37.4736V20.5638C181.375 19.2467 180.826 18.0145 179.811 17.1648ZM170.637 31.5679C170.298 32.2477 169.876 32.8425 169.284 33.3099C168.734 33.7772 168.058 34.1171 167.297 34.3721C166.536 34.5845 165.732 34.7119 164.887 34.7119C163.407 34.7119 162.096 34.4145 160.955 33.8622C159.813 33.3099 158.756 32.4176 157.826 31.313L160.109 28.9762C160.363 29.3161 160.659 29.656 160.997 29.9959C161.335 30.3358 161.716 30.5907 162.096 30.8031C162.477 31.0581 162.9 31.228 163.365 31.3555C163.83 31.4829 164.252 31.5679 164.718 31.5679C165.098 31.5679 165.479 31.5254 165.817 31.398C166.155 31.2705 166.493 31.143 166.747 30.9306C167.001 30.7182 167.212 30.4632 167.381 30.1658C167.55 29.8684 167.635 29.486 167.635 29.1037C167.635 28.5513 167.508 28.1689 167.17 27.829C166.874 27.5316 166.493 27.2767 166.07 27.1493C165.605 26.9793 165.14 26.8943 164.633 26.8518C164.126 26.8094 163.661 26.8094 163.28 26.8094V24.3876C163.661 24.3876 164.083 24.3876 164.548 24.3026C165.013 24.2601 165.479 24.1752 165.859 24.0052C166.282 23.8353 166.62 23.6228 166.874 23.3254C167.17 23.028 167.297 22.6456 167.297 22.1358C167.297 21.7534 167.212 21.456 167.085 21.1586C166.958 20.9037 166.747 20.6487 166.536 20.4788C166.324 20.3088 166.028 20.1814 165.732 20.0964C165.436 20.0114 165.098 19.9689 164.76 19.9689C163.026 19.9689 161.673 20.6912 160.701 22.1783L158.418 19.884C159.264 18.8643 160.194 18.0995 161.166 17.6322C162.139 17.1648 163.322 16.9099 164.675 16.9099C165.394 16.9099 166.113 17.0373 166.831 17.2498C167.55 17.4622 168.227 17.8021 168.819 18.227C169.41 18.6518 169.876 19.1617 170.256 19.799C170.637 20.4363 170.806 21.1161 170.806 21.9233C170.806 22.3057 170.721 22.6881 170.594 23.0705C170.467 23.4529 170.298 23.7928 170.045 24.0902C169.833 24.3876 169.537 24.685 169.241 24.9399C168.945 25.1948 168.607 25.4073 168.269 25.5772C168.649 25.7047 169.03 25.9171 169.368 26.172C169.706 26.427 170.002 26.6819 170.256 27.0218C170.51 27.3192 170.721 27.7016 170.848 28.084C170.975 28.4664 171.059 28.8912 171.059 29.3161C171.102 30.0809 170.932 30.8881 170.637 31.5679Z" fill="white"/>
<path d="M179.811 17.1648L166.831 6.20313C166.493 5.90573 166.113 5.69329 165.648 5.52334C165.563 5.52334 165.521 5.48085 165.436 5.48085C165.14 5.39588 164.887 5.35339 164.591 5.35339C163.787 5.35339 162.984 5.6508 162.35 6.20313L153.175 13.9783L149.413 17.1648C148.398 18.0145 147.848 19.2467 147.848 20.5638V37.4736C147.848 39.428 149.413 41 151.358 41H177.993C179.346 41 180.572 40.1928 181.164 38.9607C181.164 38.9182 181.206 38.9182 181.206 38.8757C181.418 38.4508 181.502 37.941 181.502 37.4736V20.5638C181.375 19.2467 180.826 18.0145 179.811 17.1648ZM170.637 31.5679C170.298 32.2477 169.876 32.8425 169.284 33.3099C168.734 33.7772 168.058 34.1171 167.297 34.3721C166.536 34.5845 165.732 34.7119 164.887 34.7119C163.407 34.7119 162.096 34.4145 160.955 33.8622C159.813 33.3099 158.756 32.4176 157.826 31.313L160.109 28.9762C160.363 29.3161 160.659 29.656 160.997 29.9959C161.335 30.3358 161.716 30.5907 162.096 30.8031C162.477 31.0581 162.9 31.228 163.365 31.3555C163.83 31.4829 164.252 31.5679 164.718 31.5679C165.098 31.5679 165.479 31.5254 165.817 31.398C166.155 31.2705 166.493 31.143 166.747 30.9306C167.001 30.7182 167.212 30.4632 167.381 30.1658C167.55 29.8684 167.635 29.486 167.635 29.1037C167.635 28.5513 167.508 28.1689 167.17 27.829C166.874 27.5316 166.493 27.2767 166.07 27.1493C165.605 26.9793 165.14 26.8943 164.633 26.8518C164.126 26.8094 163.661 26.8094 163.28 26.8094V24.3876C163.661 24.3876 164.083 24.3876 164.548 24.3026C165.013 24.2601 165.479 24.1752 165.859 24.0052C166.282 23.8353 166.62 23.6228 166.874 23.3254C167.17 23.028 167.297 22.6456 167.297 22.1358C167.297 21.7534 167.212 21.456 167.085 21.1586C166.958 20.9037 166.747 20.6487 166.536 20.4788C166.324 20.3088 166.028 20.1814 165.732 20.0964C165.436 20.0114 165.098 19.9689 164.76 19.9689C163.026 19.9689 161.673 20.6912 160.701 22.1783L158.418 19.884C159.264 18.8643 160.194 18.0995 161.166 17.6322C162.139 17.1648 163.322 16.9099 164.675 16.9099C165.394 16.9099 166.113 17.0373 166.831 17.2498C167.55 17.4622 168.227 17.8021 168.819 18.227C169.41 18.6518 169.876 19.1617 170.256 19.799C170.637 20.4363 170.806 21.1161 170.806 21.9233C170.806 22.3057 170.721 22.6881 170.594 23.0705C170.467 23.4529 170.298 23.7928 170.045 24.0902C169.833 24.3876 169.537 24.685 169.241 24.9399C168.945 25.1948 168.607 25.4073 168.269 25.5772C168.649 25.7047 169.03 25.9171 169.368 26.172C169.706 26.427 170.002 26.6819 170.256 27.0218C170.51 27.3192 170.721 27.7016 170.848 28.084C170.975 28.4664 171.059 28.8912 171.059 29.3161C171.102 30.0809 170.932 30.8881 170.637 31.5679Z" fill="white"/>
<path d="M190 15.2104V32.1202C190 32.63 189.915 33.0974 189.704 33.5223C189.154 34.7969 187.886 35.6041 186.491 35.6041H184.715V20.5637C184.715 18.2694 183.701 16.1026 181.967 14.5731L168.988 3.65388C168.734 3.44144 168.523 3.2715 168.227 3.10155L170.89 0.849734C171.524 0.297403 172.328 0.0424805 173.131 0.0424805C173.511 0.0424805 173.85 0.0849675 174.188 0.212429C174.653 0.382377 175.033 0.594812 175.372 0.892221L188.351 11.8539C189.408 12.6611 190 13.8933 190 15.2104Z" fill="white"/>
<path d="M190 15.2104V32.1202C190 32.63 189.915 33.0974 189.704 33.5223C189.154 34.7969 187.886 35.6041 186.491 35.6041H184.715V20.5637C184.715 18.2694 183.701 16.1026 181.967 14.5731L168.988 3.65388C168.734 3.44144 168.523 3.2715 168.227 3.10155L170.89 0.849734C171.524 0.297403 172.328 0.0424805 173.131 0.0424805C173.511 0.0424805 173.85 0.0849675 174.188 0.212429C174.653 0.382377 175.033 0.594812 175.372 0.892221L188.351 11.8539C189.408 12.6611 190 13.8933 190 15.2104Z" fill="white"/>
</g>
<defs>
<clipPath id="clip0">
<rect width="190" height="41" fill="white"/>
</clipPath>
</defs>
</svg>
