<svg width="101" height="21" viewBox="0 0 101 21" fill="none" xmlns="http://www.w3.org/2000/svg">
<g clip-path="url(#clip0)">
<path d="M13.3273 20.543H9.664V12.0124C9.664 11.5119 9.5741 11.0549 9.41678 10.6632C9.25946 10.2715 9.03471 9.96683 8.78749 9.70569C8.5178 9.44455 8.22563 9.27046 7.86604 9.13989C7.50645 9.00932 7.14686 8.94403 6.78727 8.94403C6.22541 8.94403 5.68603 9.03108 5.16911 9.18341C4.6522 9.3575 4.15777 9.57512 3.6858 9.87978V20.543H0V0.0870361H3.66333L3.6858 7.09429C4.22519 6.68082 4.85447 6.37616 5.57365 6.1803C6.29283 5.98445 6.98954 5.87564 7.6413 5.87564C8.40543 5.87564 9.12461 5.98445 9.79884 6.22382C10.4731 6.4632 11.0799 6.83315 11.6193 7.31191C12.1362 7.79066 12.5632 8.39999 12.8778 9.13989C13.1925 9.87978 13.3273 10.7502 13.3273 11.7513V20.543Z" fill="#795D4C"/>
<path d="M31.3517 13.4051C31.3517 14.4714 31.1494 15.4724 30.7449 16.3864C30.3404 17.3004 29.7785 18.0838 29.0593 18.7584C28.3401 19.4331 27.5086 19.9553 26.5422 20.347C25.5758 20.7388 24.5644 20.9346 23.4632 20.9346C22.3844 20.9346 21.3506 20.7388 20.4067 20.347C19.4628 19.9553 18.6312 19.4331 17.912 18.7584C17.1928 18.0838 16.631 17.3004 16.2264 16.3864C15.8219 15.4724 15.6196 14.4932 15.6196 13.4268C15.6196 12.3823 15.8219 11.4248 16.2489 10.5108C16.6759 9.59679 17.2378 8.79161 17.9345 8.11699C18.6537 7.44238 19.4852 6.89834 20.4292 6.50663C21.3731 6.11492 22.3844 5.91907 23.4632 5.91907C24.542 5.91907 25.5758 6.11492 26.5422 6.50663C27.5086 6.89834 28.3401 7.42062 29.0593 8.09523C29.7785 8.76984 30.3404 9.55326 30.7449 10.4673C31.1494 11.3812 31.3517 12.3605 31.3517 13.4051ZM27.6659 13.4051C27.6659 12.7958 27.5535 12.2299 27.3288 11.7077C27.1041 11.1854 26.8119 10.7284 26.4298 10.3367C26.0478 9.94497 25.5983 9.64031 25.1038 9.40093C24.5869 9.18332 24.0475 9.07451 23.4857 9.07451C22.9013 9.07451 22.362 9.18332 21.8675 9.40093C21.3506 9.61855 20.9236 9.92321 20.5415 10.3367C20.1595 10.7284 19.8673 11.1854 19.6425 11.7077C19.4178 12.2299 19.3054 12.7958 19.3054 13.4051C19.3054 14.0144 19.4178 14.5802 19.6425 15.1025C19.8673 15.6248 20.1595 16.0818 20.5415 16.4952C20.9011 16.8869 21.3506 17.1916 21.8675 17.4092C22.3844 17.6268 22.9238 17.7356 23.4857 17.7356C24.07 17.7356 24.6094 17.6268 25.1038 17.4092C25.6207 17.1916 26.0478 16.8869 26.4298 16.4735C26.8119 16.0818 27.1041 15.6248 27.3288 15.0807C27.576 14.5802 27.6659 14.0144 27.6659 13.4051Z" fill="#795D4C"/>
<path d="M55.4442 20.5429H51.7809V12.0341C51.7809 11.0331 51.5337 10.2714 51.0392 9.74912C50.5448 9.22684 49.9155 8.9657 49.1963 8.9657C48.6345 8.9657 48.0951 9.05275 47.6006 9.22684C47.1062 9.40093 46.6118 9.68383 46.1398 10.0755C46.2971 10.6413 46.3645 11.2942 46.3645 12.0341V20.5429H42.7012V12.0341C42.7012 11.0331 42.454 10.2714 41.9596 9.74912C41.4651 9.22684 40.8583 8.9657 40.1391 8.9657C39.5773 8.9657 39.0828 9.05275 38.6558 9.2486C38.2288 9.44446 37.7793 9.74912 37.3298 10.1408V20.5211H33.6665V6.28902H37.3074V7.35534C37.7568 6.9201 38.2962 6.57192 38.9255 6.31078C39.5548 6.04964 40.1841 5.91907 40.8358 5.91907C41.555 5.91907 42.2742 6.0714 42.9934 6.39782C43.7126 6.70249 44.3418 7.15948 44.9037 7.74705C45.6678 7.0942 46.432 6.61544 47.2186 6.33254C48.0052 6.04964 48.8592 5.91907 49.8031 5.91907C50.5673 5.91907 51.2864 6.02788 51.9831 6.24549C52.6798 6.46311 53.2642 6.81129 53.7811 7.31181C54.298 7.79057 54.7025 8.42166 54.9947 9.16155C55.3094 9.90145 55.4442 10.8154 55.4442 11.86V20.5429Z" fill="#795D4C"/>
<path d="M73.4464 13.3834C73.4464 13.6228 73.424 13.8622 73.4015 14.1015C73.379 14.3409 73.3565 14.6021 73.3116 14.8632H61.535C61.6698 15.2767 61.8721 15.6684 62.1193 16.0383C62.3665 16.4083 62.6587 16.7347 63.0183 16.9958C63.3779 17.257 63.7824 17.4746 64.2319 17.6269C64.6814 17.7793 65.1758 17.8663 65.7152 17.8663C66.367 17.8663 67.0412 17.7575 67.693 17.5399C68.3447 17.3223 68.9066 17.0176 69.3561 16.6477L71.6934 18.8891C70.6821 19.629 69.6707 20.1513 68.7043 20.4559C67.7379 20.7606 66.7041 20.9129 65.6029 20.9129C64.5016 20.9129 63.4678 20.7171 62.5014 20.3254C61.535 19.9337 60.7034 19.3896 60.0067 18.715C59.31 18.0404 58.7482 17.257 58.3436 16.343C57.9391 15.429 57.7368 14.4497 57.7368 13.4269C57.7368 12.3824 57.9391 11.4249 58.3436 10.5109C58.7482 9.59688 59.31 8.81346 60.0292 8.13885C60.7484 7.46423 61.5799 6.92019 62.5239 6.52848C63.4678 6.13677 64.5016 5.94092 65.5804 5.94092C66.6142 5.94092 67.6031 6.13677 68.5695 6.50672C69.5134 6.87667 70.3674 7.39895 71.0866 8.0518C71.8058 8.70465 72.3901 9.48807 72.8171 10.4021C73.2442 11.2725 73.4464 12.2736 73.4464 13.3834ZM69.6033 12.0124C69.3111 11.0984 68.7942 10.3803 68.0526 9.83626C67.3109 9.29221 66.4794 9.00931 65.5354 9.00931C64.614 9.00931 63.7824 9.29221 63.0633 9.83626C62.3216 10.3803 61.8272 11.1202 61.535 12.0124H69.6033Z" fill="#795D4C"/>
<path d="M95.5839 8.79168L88.6843 3.17718C88.5045 3.02484 88.3022 2.91604 88.055 2.82899C88.01 2.82899 87.9876 2.80723 87.9426 2.80723C87.7853 2.7637 87.6504 2.74194 87.4931 2.74194C87.0661 2.74194 86.6391 2.89427 86.302 3.17718L81.425 7.15956L79.4248 8.79168C78.8854 9.22692 78.5933 9.85801 78.5933 10.5326V19.1938C78.5933 20.1948 79.4248 21 80.4586 21H94.6175C95.3367 21 95.9884 20.5865 96.3031 19.9554C96.3031 19.9337 96.3256 19.9337 96.3256 19.9119C96.4379 19.6943 96.4829 19.4331 96.4829 19.1938V10.5326C96.4155 9.85801 96.1233 9.22692 95.5839 8.79168ZM90.707 16.1689C90.5272 16.5171 90.3024 16.8217 89.9878 17.0611C89.6956 17.3005 89.336 17.4746 88.9315 17.6052C88.5269 17.714 88.0999 17.7792 87.6504 17.7792C86.8638 17.7792 86.1671 17.6269 85.5603 17.344C84.9535 17.0611 84.3917 16.6041 83.8972 16.0383L85.1108 14.8414C85.2457 15.0155 85.403 15.1896 85.5828 15.3637C85.7626 15.5378 85.9649 15.6684 86.1671 15.7772C86.3694 15.9077 86.5941 15.9948 86.8414 16.0601C87.0886 16.1254 87.3133 16.1689 87.5605 16.1689C87.7628 16.1689 87.9651 16.1471 88.1449 16.0818C88.3247 16.0166 88.5045 15.9513 88.6393 15.8425C88.7742 15.7337 88.8865 15.6031 88.9764 15.4508C89.0663 15.2984 89.1113 15.1026 89.1113 14.9067C89.1113 14.6238 89.0439 14.428 88.8641 14.2539C88.7067 14.1015 88.5045 13.971 88.2797 13.9057C88.0325 13.8186 87.7853 13.7751 87.5156 13.7533C87.2459 13.7316 86.9987 13.7316 86.7964 13.7316V12.4912C86.9987 12.4912 87.2234 12.4912 87.4706 12.4476C87.7179 12.4259 87.9651 12.3824 88.1674 12.2953C88.3921 12.2083 88.5719 12.0995 88.7067 11.9471C88.8641 11.7948 88.9315 11.5989 88.9315 11.3378C88.9315 11.1419 88.8865 10.9896 88.8191 10.8373C88.7517 10.7067 88.6393 10.5761 88.5269 10.4891C88.4146 10.402 88.2573 10.3368 88.0999 10.2932C87.9426 10.2497 87.7628 10.228 87.583 10.228C86.6616 10.228 85.9424 10.5979 85.4255 11.3596L84.2119 10.1844C84.6613 9.66215 85.1558 9.27044 85.6727 9.03106C86.1896 8.79168 86.8189 8.66111 87.5381 8.66111C87.9201 8.66111 88.3022 8.7264 88.6843 8.83521C89.0663 8.94402 89.4259 9.11811 89.7406 9.33573C90.0552 9.55334 90.3024 9.81448 90.5047 10.1409C90.707 10.4673 90.7969 10.8155 90.7969 11.229C90.7969 11.4248 90.7519 11.6207 90.6845 11.8166C90.6171 12.0124 90.5272 12.1865 90.3923 12.3388C90.28 12.4912 90.1226 12.6435 89.9653 12.7741C89.808 12.9046 89.6282 13.0134 89.4484 13.1005C89.6507 13.1658 89.8529 13.2746 90.0327 13.4052C90.2125 13.5357 90.3698 13.6663 90.5047 13.8404C90.6395 13.9927 90.7519 14.1886 90.8193 14.3844C90.8868 14.5803 90.9317 14.7979 90.9317 15.0155C90.9542 15.4072 90.8643 15.8207 90.707 16.1689Z" fill="#795D4C"/>
<path d="M95.5839 8.79168L88.6843 3.17718C88.5045 3.02484 88.3022 2.91604 88.055 2.82899C88.01 2.82899 87.9876 2.80723 87.9426 2.80723C87.7853 2.7637 87.6504 2.74194 87.4931 2.74194C87.0661 2.74194 86.6391 2.89427 86.302 3.17718L81.425 7.15956L79.4248 8.79168C78.8854 9.22692 78.5933 9.85801 78.5933 10.5326V19.1938C78.5933 20.1948 79.4248 21 80.4586 21H94.6175C95.3367 21 95.9884 20.5865 96.3031 19.9554C96.3031 19.9337 96.3256 19.9337 96.3256 19.9119C96.4379 19.6943 96.4829 19.4331 96.4829 19.1938V10.5326C96.4155 9.85801 96.1233 9.22692 95.5839 8.79168ZM90.707 16.1689C90.5272 16.5171 90.3024 16.8217 89.9878 17.0611C89.6956 17.3005 89.336 17.4746 88.9315 17.6052C88.5269 17.714 88.0999 17.7792 87.6504 17.7792C86.8638 17.7792 86.1671 17.6269 85.5603 17.344C84.9535 17.0611 84.3917 16.6041 83.8972 16.0383L85.1108 14.8414C85.2457 15.0155 85.403 15.1896 85.5828 15.3637C85.7626 15.5378 85.9649 15.6684 86.1671 15.7772C86.3694 15.9077 86.5941 15.9948 86.8414 16.0601C87.0886 16.1254 87.3133 16.1689 87.5605 16.1689C87.7628 16.1689 87.9651 16.1471 88.1449 16.0818C88.3247 16.0166 88.5045 15.9513 88.6393 15.8425C88.7742 15.7337 88.8865 15.6031 88.9764 15.4508C89.0663 15.2984 89.1113 15.1026 89.1113 14.9067C89.1113 14.6238 89.0439 14.428 88.8641 14.2539C88.7067 14.1015 88.5045 13.971 88.2797 13.9057C88.0325 13.8186 87.7853 13.7751 87.5156 13.7533C87.2459 13.7316 86.9987 13.7316 86.7964 13.7316V12.4912C86.9987 12.4912 87.2234 12.4912 87.4706 12.4476C87.7179 12.4259 87.9651 12.3824 88.1674 12.2953C88.3921 12.2083 88.5719 12.0995 88.7067 11.9471C88.8641 11.7948 88.9315 11.5989 88.9315 11.3378C88.9315 11.1419 88.8865 10.9896 88.8191 10.8373C88.7517 10.7067 88.6393 10.5761 88.5269 10.4891C88.4146 10.402 88.2573 10.3368 88.0999 10.2932C87.9426 10.2497 87.7628 10.228 87.583 10.228C86.6616 10.228 85.9424 10.5979 85.4255 11.3596L84.2119 10.1844C84.6613 9.66215 85.1558 9.27044 85.6727 9.03106C86.1896 8.79168 86.8189 8.66111 87.5381 8.66111C87.9201 8.66111 88.3022 8.7264 88.6843 8.83521C89.0663 8.94402 89.4259 9.11811 89.7406 9.33573C90.0552 9.55334 90.3024 9.81448 90.5047 10.1409C90.707 10.4673 90.7969 10.8155 90.7969 11.229C90.7969 11.4248 90.7519 11.6207 90.6845 11.8166C90.6171 12.0124 90.5272 12.1865 90.3923 12.3388C90.28 12.4912 90.1226 12.6435 89.9653 12.7741C89.808 12.9046 89.6282 13.0134 89.4484 13.1005C89.6507 13.1658 89.8529 13.2746 90.0327 13.4052C90.2125 13.5357 90.3698 13.6663 90.5047 13.8404C90.6395 13.9927 90.7519 14.1886 90.8193 14.3844C90.8868 14.5803 90.9317 14.7979 90.9317 15.0155C90.9542 15.4072 90.8643 15.8207 90.707 16.1689Z" fill="#795D4C"/>
<path d="M101 7.79064V16.4518C101 16.7129 100.955 16.9523 100.843 17.1699C100.551 17.8228 99.8764 18.2362 99.1347 18.2362H98.1908V10.5326C98.1908 9.35748 97.6514 8.24763 96.73 7.46422L89.8303 1.87147C89.6955 1.76266 89.5831 1.67561 89.4258 1.58857L90.8417 0.4352C91.1788 0.152298 91.6058 0.0217285 92.0328 0.0217285C92.2351 0.0217285 92.4149 0.0434902 92.5947 0.108775C92.8419 0.195822 93.0442 0.30463 93.224 0.456962L100.124 6.07147C100.685 6.48494 101 7.11603 101 7.79064Z" fill="#795D4C"/>
<path d="M101 7.79064V16.4518C101 16.7129 100.955 16.9523 100.843 17.1699C100.551 17.8228 99.8764 18.2362 99.1347 18.2362H98.1908V10.5326C98.1908 9.35748 97.6514 8.24763 96.73 7.46422L89.8303 1.87147C89.6955 1.76266 89.5831 1.67561 89.4258 1.58857L90.8417 0.4352C91.1788 0.152298 91.6058 0.0217285 92.0328 0.0217285C92.2351 0.0217285 92.4149 0.0434902 92.5947 0.108775C92.8419 0.195822 93.0442 0.30463 93.224 0.456962L100.124 6.07147C100.685 6.48494 101 7.11603 101 7.79064Z" fill="#795D4C"/>
</g>
<defs>
<clipPath id="clip0">
<rect width="101" height="21" fill="white"/>
</clipPath>
</defs>
</svg>
