<svg width="565" height="59" viewBox="0 0 565 59" fill="none" xmlns="http://www.w3.org/2000/svg">
<path d="M68.4176 18.4001V14.2158C68.4378 12.2454 68.0992 10.2879 67.4183 8.43883C66.7571 6.71801 65.6851 5.185 64.2957 3.97342C62.5845 2.60903 60.6057 1.61961 58.4875 1.06934C55.7132 0.299724 52.8409 -0.0580005 49.9626 0.00763779H0V8.68865H49.9626C54.834 8.68865 57.3009 10.4998 57.3009 14.1221V18.4626C57.3009 22.0849 54.834 23.896 49.9626 23.896H0V58.8386H11.1167V32.577H42.0935L55.8957 58.8386H67.7306L53.8972 32.4209C58.0623 32.3808 62.0573 30.7627 65.0763 27.893C67.3291 25.2528 68.52 21.8694 68.4176 18.4001Z" fill="#010101"/>
<path d="M119.13 0.0090332H111.011L71.8213 58.84H84.3119L115.101 11.4692L145.454 58.84H157.944L119.13 0.0090332Z" fill="#010101"/>
<path d="M163.815 0.0090332V58.84H174.869V0.0090332H163.815Z" fill="#010101"/>
<path d="M255.558 31.5778C254.897 29.857 253.825 28.3239 252.436 27.1124C250.738 25.7625 248.783 24.7742 246.69 24.2083C243.905 23.4392 241.022 23.0815 238.134 23.1466H203.503C198.601 23.1466 196.134 21.3354 196.134 17.7444V14.1221C196.134 10.4998 198.601 8.68865 203.503 8.68865H253.466V0.00763779H203.503C200.625 -0.0580005 197.753 0.299724 194.979 1.06934C192.891 1.62481 190.944 2.61437 189.264 3.97342C187.865 5.17621 186.791 6.71187 186.141 8.43883C185.447 10.2841 185.107 12.2443 185.142 14.2158V17.6507C185.107 19.612 185.446 21.5621 186.141 23.3964C186.79 25.1328 187.864 26.6788 189.264 27.893C190.944 29.2521 192.891 30.2416 194.979 30.7971C197.755 31.5549 200.627 31.902 203.503 31.8276H238.071C243.005 31.8276 245.441 33.6387 245.441 37.261V44.693C245.441 48.3465 243.005 50.1264 238.071 50.1264H186.953V58.8386H238.071C240.98 58.8941 243.882 58.5366 246.69 57.7769C248.78 57.2104 250.727 56.2103 252.404 54.8416C253.801 53.6361 254.874 52.1013 255.527 50.3762C256.21 48.5386 256.549 46.5909 256.526 44.6305V37.4796C256.569 35.4696 256.241 33.4689 255.558 31.5778Z" fill="#010101"/>
<path d="M403.761 0.0090332V43.7263L345.211 0.0090332H335.593V58.84H345.274V13.0618L408.008 58.84H413.441V0.0090332H403.761Z" fill="#010101"/>
<path d="M493.662 31.5778C493.001 29.857 491.929 28.3239 490.54 27.1124C488.845 25.7595 486.889 24.7709 484.794 24.2083C482.02 23.4387 479.148 23.0809 476.269 23.1466H441.608C436.705 23.1466 434.238 21.3354 434.238 17.7444V14.1221C434.238 10.4998 436.705 8.68865 441.608 8.68865H491.383V0.00763779H441.608C438.729 -0.0580005 435.857 0.299724 433.083 1.06934C430.995 1.62481 429.048 2.61437 427.368 3.97342C425.96 5.16781 424.884 6.70606 424.246 8.43883C423.54 10.282 423.19 12.2423 423.215 14.2158V17.6507C423.19 19.6141 423.54 21.5642 424.246 23.3964C424.883 25.1385 425.959 26.6871 427.368 27.893C429.048 29.2521 430.995 30.2416 433.083 30.7971C435.859 31.5549 438.731 31.902 441.608 31.8276H476.176C481.078 31.8276 483.545 33.6387 483.545 37.261V44.693C483.545 48.3465 481.078 50.1264 476.176 50.1264H425.058V58.8386H476.176C479.053 58.8886 481.923 58.5312 484.7 57.7769C486.802 57.2171 488.761 56.2165 490.446 54.8416C491.842 53.6361 492.916 52.1013 493.569 50.3762C494.252 48.5386 494.591 46.5909 494.568 44.6305V37.4796C494.631 35.4734 494.324 33.4729 493.662 31.5778Z" fill="#010101"/>
<path d="M503.748 0.0090332V8.69004H564.234V0.0090332H503.748ZM514.864 50.1278V32.11H544.717V23.3978H503.748V58.84H564.234V50.1278H514.864Z" fill="#010101"/>
<path d="M265.645 0.0090332V8.69004H326.162V0.0090332H265.645ZM276.761 50.1278V32.11H306.614V23.3978H265.645V58.84H326.162V50.1278H276.761Z" fill="#010101"/>
</svg>
