<svg width="226" height="103" viewBox="0 0 226 103" fill="none" xmlns="http://www.w3.org/2000/svg">
<path d="M0.208496 0H226C226 34.1642 226 68.3306 226 102.499C194.454 102.499 162.906 102.499 131.355 102.499C131.23 87.4196 131.418 72.3329 131.258 57.2531C119.948 57.3226 108.637 57.2531 97.3267 57.2531C97.3267 62.5856 97.3753 67.9181 97.2919 73.2437C79.7358 73.1533 62.1866 73.2437 44.6304 73.188C40.7329 73.2437 36.8076 72.8821 32.9309 73.4453C29.2349 74.0084 25.4833 73.7234 21.7594 73.779C14.7356 73.779 7.71172 73.7164 0.687869 73.8277C0.687869 74.3978 0.736501 75.538 0.757343 76.1081L0.396077 76.1567C0.222391 72.7153 0.187654 69.2669 0.222391 65.8254C0.217759 43.9068 0.213128 21.965 0.208496 0ZM1.94535 1.68248C1.94535 13.2583 1.94535 24.8271 1.94535 36.3959C21.0369 36.4863 40.1562 36.3959 59.213 36.3959V38.2383C40.1284 38.2383 21.0369 38.2035 1.9523 38.2383C1.9523 49.5012 1.9523 60.7641 1.9523 72.027C11.8316 72.1521 21.7178 71.9436 31.6039 71.9922C31.7429 66.5276 31.7429 61.0561 31.5414 55.5915C41.4693 55.6193 51.4111 55.6193 61.3459 55.6193C63.6041 56.3501 66.0351 56.3501 68.2933 55.6193C98.5564 55.6193 128.824 55.6193 159.096 55.6193C159.096 56.0365 159.096 56.8638 159.096 57.2809C150.454 57.2809 141.818 57.3296 133.182 57.2809C133.016 71.7837 133.182 86.2934 133.099 100.796C163.473 100.893 193.847 100.796 224.229 100.852C224.289 86.3351 224.289 71.8161 224.229 57.2948C206.742 57.3644 189.255 57.2948 171.768 57.3435C170.803 57.2253 168.795 57.6703 169.365 55.8418C170.58 55.7027 171.796 55.6263 173.012 55.4942C173.012 54.1037 172.977 52.7132 173.012 51.3227H174.791C174.791 52.7132 174.791 54.0411 174.895 55.3968C175.902 55.7792 177.048 55.5915 178.118 55.661C193.493 55.5984 208.875 55.661 224.256 55.661C224.312 37.6774 224.312 19.6892 224.256 1.69639C207.77 1.74506 191.277 1.64772 174.791 1.74506C174.832 14.3243 174.832 26.9012 174.791 39.4758C174.881 40.5673 174.297 41.1235 173.033 41.1374L172.991 38.2383C169.9 38.1827 166.794 38.3982 163.709 38.134C163.591 37.7099 163.348 36.8686 163.23 36.4445C166.488 36.4445 169.747 36.4445 173.005 36.4445C173.005 24.8549 173.081 13.2583 172.956 1.68248C144.91 1.75201 116.856 1.68248 88.8091 1.68248C88.8091 13.2722 88.7674 24.8618 88.8091 36.4445C110.2 36.4028 131.591 36.4445 152.976 36.4445C152.976 36.9034 152.976 37.835 152.976 38.2661C125.123 38.2661 97.2711 38.2661 69.4258 38.2661C69.5439 37.842 69.787 36.9938 69.9121 36.5697C75.602 36.3125 81.3059 36.5697 87.0028 36.4793C87.107 24.8896 86.836 13.3 87.107 1.71725L1.94535 1.68248ZM31.9583 57.3505C31.9583 62.6621 32.1667 67.9807 31.7915 73.2854L35.9114 72.9239C35.9114 67.7026 35.7238 62.4952 36.0086 57.267C34.64 57.2948 33.2852 57.3157 31.9583 57.3505ZM36.2935 57.7537C35.8488 62.7942 36.2309 67.8625 36.1545 72.91C37.544 72.9517 38.9335 72.9934 40.323 73.056C41.0559 67.7766 41.0559 62.4212 40.323 57.1419C38.9404 57.3366 37.5162 57.0932 36.2726 57.7537H36.2935ZM40.7746 57.2948C41.0837 62.5162 41.0837 67.7512 40.7746 72.9725H44.8527C44.8527 67.7443 44.9361 62.5439 44.8527 57.2948H40.7746ZM45.1584 57.2948C45.2557 62.5509 45.1584 67.8069 45.1584 73.0629C46.4576 73.0629 47.7567 73.0629 49.0559 73.0629C49.0559 67.8208 49.0003 62.5787 49.0559 57.3366L45.1584 57.2948ZM49.3268 57.2948C49.2852 62.5717 49.3268 67.786 49.3268 73.0003C50.7163 73.0003 52.0502 73.0003 53.4119 73.0003C53.075 67.766 53.075 62.5153 53.4119 57.2809L49.3268 57.2948ZM53.4953 69.3295C53.6134 70.5531 53.3494 71.9922 54.2595 72.9795C55.5656 72.9795 58.1154 73.5079 58.0111 71.45C58.157 66.7432 58.3585 61.9599 57.6638 57.2601H53.9261C53.1479 61.2508 53.4953 65.3527 53.4953 69.3503V69.3295ZM58.1501 57.2531C58.4558 62.4699 58.4558 67.7001 58.1501 72.9169L62.2143 72.9656C62.2143 67.7582 62.263 62.537 62.2143 57.3435C60.8387 57.3296 59.484 57.2879 58.1292 57.274L58.1501 57.2531ZM62.5061 57.2531C62.6034 62.4883 62.5061 67.7235 62.5061 72.9656L66.4175 73.1255C66.3203 67.8417 66.362 62.5509 66.4175 57.2601L62.5061 57.2531ZM66.7857 57.3157C66.6977 62.5532 66.6839 67.7907 66.7441 73.0282L70.6555 72.9864C70.6555 67.7304 70.4401 62.4744 70.7944 57.2253L66.7857 57.3157ZM70.8639 73.0003C72.3645 73.0003 73.8652 73.0003 75.3658 73.0421C75.4006 67.9598 75.7132 62.8568 75.2755 57.7954C74.1014 57.0237 72.573 57.3713 71.2529 57.1349C70.3984 62.3771 71.0098 67.7096 70.8639 73.0003ZM75.5673 57.267C75.8244 62.5161 75.7132 67.7791 75.5673 73.0282L79.5482 72.9447C79.5482 67.7443 79.6246 62.5161 79.5482 57.3366L75.5673 57.267ZM79.8747 57.267C79.965 62.4883 79.8747 67.6956 79.8747 72.9378L83.7375 72.9795C83.7375 67.7443 83.7375 62.5091 83.7375 57.274L79.8747 57.267ZM84.0988 57.3087C84.0223 62.5439 84.0988 67.786 84.0988 73.0212C85.4882 73.0212 86.8221 73.0212 88.1908 73.0212C87.8087 67.7721 87.9963 62.4952 88.031 57.2392L84.0988 57.3087ZM88.2255 57.3783C88.3089 62.6065 87.76 67.8764 88.6285 73.056C90.018 72.9934 91.4075 72.9656 92.7969 72.9239C92.7414 67.6748 93.2207 62.391 92.4426 57.1766C91.0114 57.2601 89.622 57.3435 88.2325 57.4061L88.2255 57.3783ZM92.8734 57.2531C93.1999 62.5161 93.047 67.793 93.0054 73.0629L96.9585 72.9934C97.0418 67.7652 96.9932 62.5648 96.9932 57.2948L92.8734 57.2531Z" fill="#676767"/>
</svg>
